<svg xmlns="http://www.w3.org/2000/svg" width="833" height="680" data-diagram-type="CLASS" preserveAspectRatio="none" style="width:833px;height:680px;background:#fff"><text x="317.147" y="22.995" class="title" data-source-line="1" font-family="sans-serif" font-size="14" font-weight="bold" textLength="185.206">Diagramma delle Classi</text><g class="entity" data-entity="ICamera" data-source-line="8" data-uid="ent0002"><rect width="187.868" height="64.297" x="557.69" y="60.447" fill="#F1F1F1" rx="2.5" ry="2.5" style="stroke:#181818;stroke-width:.5"/><circle cx="617.839" cy="76.447" r="11" fill="#B4A7E5" style="stroke:#181818;stroke-width:1"/><path d="M613.761 72.213v-2.157h7.39v2.157h-2.468v8.078h2.469v2.156h-7.39V80.29h2.468v-8.078h-2.469Z"/><text x="638.339" y="81.294" font-family="sans-serif" font-size="14" font-style="italic" textLength="59.069">ICamera</text><path d="M558.69 92.447h185.868M558.69 100.447h185.868" style="stroke:#181818;stroke-width:.5"/><text x="563.69" y="117.442" font-family="sans-serif" font-size="14" textLength="175.868">+scattaFoto(): Immagine</text></g><g class="entity" data-entity="IPredizione" data-source-line="12" data-uid="ent0003"><rect width="319.822" height="64.297" x="491.71" y="168.447" fill="#F1F1F1" rx="2.5" ry="2.5" style="stroke:#181818;stroke-width:.5"/><circle cx="608.868" cy="184.447" r="11" fill="#B4A7E5" style="stroke:#181818;stroke-width:1"/><path d="M604.79 180.213v-2.157h7.39v2.156h-2.468v8.079h2.468v2.156h-7.39v-2.156h2.468v-8.078h-2.468Z"/><text x="629.368" y="189.294" font-family="sans-serif" font-size="14" font-style="italic" textLength="77.007">IPredizione</text><path d="M492.71 200.447h317.822M492.71 208.447h317.822" style="stroke:#181818;stroke-width:.5"/><text x="497.71" y="225.442" font-family="sans-serif" font-size="14" textLength="307.822">+effettuaPredizione(img: Immagine): String</text></g><g class="entity" data-entity="ISensoreMovimento" data-source-line="16" data-uid="ent0004"><rect width="349.75" height="64.297" x="476.75" y="584.447" fill="#F1F1F1" rx="2.5" ry="2.5" style="stroke:#181818;stroke-width:.5"/><circle cx="578.011" cy="600.447" r="11" fill="#B4A7E5" style="stroke:#181818;stroke-width:1"/><path d="M573.933 596.212v-2.156h7.39v2.156h-2.468v8.079h2.468v2.156h-7.39v-2.156h2.468v-8.079h-2.468Z"/><text x="598.511" y="605.294" font-family="sans-serif" font-size="14" font-style="italic" textLength="138.728">ISensoreMovimento</text><path d="M477.75 616.447H825.5M477.75 624.447H825.5" style="stroke:#181818;stroke-width:.5"/><text x="482.75" y="641.442" font-family="sans-serif" font-size="14" textLength="337.75">+informaHead(controllore: ControlloreTrappola)</text></g><g class="entity" data-entity="ControlloreTrappola" data-source-line="21" data-uid="ent0005"><rect width="217.598" height="178.375" x="73.08" y="300.407" fill="#F1F1F1" rx="2.5" ry="2.5" style="stroke:#181818;stroke-width:.5"/><circle cx="108.854" cy="316.407" r="11" fill="#ADD1B2" style="stroke:#181818;stroke-width:1"/><path d="M111.823 322.048q-.578.296-1.219.437-.64.156-1.344.156-2.5 0-3.828-1.64-1.312-1.657-1.312-4.782t1.312-4.78q1.328-1.657 3.828-1.657.704 0 1.344.156.656.156 1.219.453v2.719q-.625-.578-1.219-.844-.594-.281-1.219-.281-1.343 0-2.03 1.078-.688 1.063-.688 3.156 0 2.094.687 3.172.688 1.063 2.031 1.063.625 0 1.22-.266.593-.281 1.218-.86v2.72Z"/><text x="127.471" y="321.254" font-family="sans-serif" font-size="14" textLength="139.433">ControlloreTrappola</text><path d="M74.08 332.407h215.598" style="stroke:#181818;stroke-width:.5"/><text x="79.08" y="349.402" font-family="sans-serif" font-size="14" textLength="91.417">-stato: String</text><path d="M74.08 356.704h215.598" style="stroke:#181818;stroke-width:.5"/><text x="79.08" y="373.699" font-family="sans-serif" font-size="14" textLength="163.871">+gestisciRilevamento()</text><text x="79.08" y="389.996" font-family="sans-serif" font-size="14" textLength="76.617">-apriGate()</text><text x="79.08" y="406.293" font-family="sans-serif" font-size="14" textLength="91.615">-chiudiGate()</text><text x="79.08" y="422.589" font-family="sans-serif" font-size="14" textLength="97.638">-accendiLED()</text><text x="79.08" y="438.886" font-family="sans-serif" font-size="14" textLength="89.845">-spegniLED()</text><text x="79.08" y="455.183" font-family="sans-serif" font-size="14" textLength="188.098">-potenziaFAN(potenza: int)</text><text x="79.08" y="471.48" font-family="sans-serif" font-size="14" textLength="205.598">-depotenziaFAN(potenza: int)</text></g><g class="entity" data-entity="ModuloCAM" data-source-line="33" data-uid="ent0006"><rect width="187.868" height="80.594" x="87.94" y="44.297" fill="#F1F1F1" rx="2.5" ry="2.5" style="stroke:#181818;stroke-width:.5"/><circle cx="136.479" cy="60.297" r="11" fill="#ADD1B2" style="stroke:#181818;stroke-width:1"/><path d="M139.447 65.938q-.578.296-1.218.437-.641.156-1.344.156-2.5 0-3.828-1.64-1.313-1.657-1.313-4.782t1.313-4.78q1.328-1.657 3.828-1.657.703 0 1.344.156.656.156 1.218.453V57q-.625-.578-1.218-.844-.594-.281-1.22-.281-1.343 0-2.03 1.078-.688 1.063-.688 3.156 0 2.094.688 3.172.687 1.063 2.03 1.063.626 0 1.22-.266.593-.281 1.218-.86v2.72Z"/><text x="156.979" y="65.144" font-family="sans-serif" font-size="14" textLength="82.291">ModuloCAM</text><path d="M88.94 76.297h185.868" style="stroke:#181818;stroke-width:.5"/><text x="93.94" y="93.292" font-family="sans-serif" font-size="14" textLength="98.096">+stato: String</text><path d="M88.94 100.594h185.868" style="stroke:#181818;stroke-width:.5"/><text x="93.94" y="117.589" font-family="sans-serif" font-size="14" textLength="175.868">+scattaFoto(): Immagine</text></g><g class="entity" data-entity="ModelloML" data-source-line="38" data-uid="ent0007"><rect width="319.822" height="80.594" x="21.96" y="160.297" fill="#F1F1F1" rx="2.5" ry="2.5" style="stroke:#181818;stroke-width:.5"/><circle cx="140.437" cy="176.297" r="11" fill="#ADD1B2" style="stroke:#181818;stroke-width:1"/><path d="M143.406 181.938q-.578.296-1.219.437-.64.156-1.344.156-2.5 0-3.828-1.64-1.312-1.657-1.312-4.782t1.312-4.78q1.328-1.657 3.828-1.657.703 0 1.344.156.656.156 1.219.453V173q-.625-.578-1.219-.844-.594-.281-1.219-.281-1.343 0-2.03 1.078-.688 1.063-.688 3.156 0 2.094.687 3.172.688 1.063 2.031 1.063.625 0 1.22-.266.593-.281 1.218-.86v2.72Z"/><text x="160.937" y="181.144" font-family="sans-serif" font-size="14" textLength="74.368">ModelloML</text><path d="M22.96 192.297h317.822" style="stroke:#181818;stroke-width:.5"/><text x="27.96" y="209.292" font-family="sans-serif" font-size="14" textLength="98.096">+stato: String</text><path d="M22.96 216.594h317.822" style="stroke:#181818;stroke-width:.5"/><text x="27.96" y="233.589" font-family="sans-serif" font-size="14" textLength="307.822">+effettuaPredizione(img: Immagine): String</text></g><g class="entity" data-entity="SensoreMovimento" data-source-line="43" data-uid="ent0008"><rect width="349.75" height="96.891" x="7" y="576.147" fill="#F1F1F1" rx="2.5" ry="2.5" style="stroke:#181818;stroke-width:.5"/><circle cx="110.325" cy="592.147" r="11" fill="#ADD1B2" style="stroke:#181818;stroke-width:1"/><path d="M113.294 597.788q-.578.296-1.219.437-.64.156-1.344.156-2.5 0-3.828-1.64-1.312-1.657-1.312-4.782t1.312-4.78q1.328-1.657 3.828-1.657.704 0 1.344.156.656.156 1.219.453v2.719q-.625-.578-1.219-.844-.594-.281-1.219-.281-1.343 0-2.03 1.078-.688 1.063-.688 3.156 0 2.094.687 3.172.688 1.063 2.031 1.063.625 0 1.22-.266.593-.281 1.218-.86v2.72Z"/><text x="130.825" y="596.994" font-family="sans-serif" font-size="14" textLength="134.6">SensoreMovimento</text><path d="M8 608.147h347.75" style="stroke:#181818;stroke-width:.5"/><text x="13" y="625.142" font-family="sans-serif" font-size="14" textLength="98.096">+stato: String</text><path d="M8 632.444h347.75" style="stroke:#181818;stroke-width:.5"/><text x="13" y="649.439" font-family="sans-serif" font-size="14" textLength="337.75">+informaHead(controllore: ControlloreTrappola)</text><text x="13" y="665.736" font-family="sans-serif" font-size="14" textLength="155.278">-controllaMovimento()</text></g><g class="entity" data-entity="LED" data-source-line="50" data-uid="ent0009"><rect width="59.426" height="64.297" x="621.91" y="382.447" fill="#F1F1F1" rx="2.5" ry="2.5" style="stroke:#181818;stroke-width:.5"/><circle cx="636.91" cy="398.447" r="11" fill="#ADD1B2" style="stroke:#181818;stroke-width:1"/><path d="M639.879 404.087q-.578.297-1.219.438-.64.156-1.344.156-2.5 0-3.828-1.64-1.312-1.657-1.312-4.782t1.312-4.78q1.328-1.657 3.828-1.657.703 0 1.344.156.656.156 1.219.453v2.719q-.625-.578-1.219-.844-.594-.281-1.219-.281-1.344 0-2.031 1.078-.688 1.063-.688 3.156 0 2.094.688 3.172.688 1.063 2.031 1.063.625 0 1.219-.266.594-.281 1.219-.86v2.72Z"/><text x="650.91" y="403.294" font-family="sans-serif" font-size="14" textLength="27.426">LED</text><path d="M622.91 414.447h57.426" style="stroke:#181818;stroke-width:.5"/><text x="627.91" y="431.442" font-family="sans-serif" font-size="14" textLength="47.148">+stato</text><path d="M622.91 438.744h57.426" style="stroke:#181818;stroke-width:.5"/></g><g class="entity" data-entity="GATE" data-source-line="53" data-uid="ent0010"><rect width="110.096" height="64.297" x="596.58" y="481.447" fill="#F1F1F1" rx="2.5" ry="2.5" style="stroke:#181818;stroke-width:.5"/><circle cx="629.703" cy="497.447" r="11" fill="#ADD1B2" style="stroke:#181818;stroke-width:1"/><path d="M632.671 503.087q-.578.297-1.218.438-.641.156-1.344.156-2.5 0-3.828-1.64-1.313-1.657-1.313-4.782t1.313-4.78q1.328-1.657 3.828-1.657.703 0 1.344.156.656.156 1.218.453v2.719q-.625-.578-1.218-.844-.594-.281-1.22-.281-1.343 0-2.03 1.078-.688 1.063-.688 3.156 0 2.094.688 3.172.687 1.063 2.03 1.063.626 0 1.22-.266.593-.281 1.218-.86v2.72Z"/><text x="647.73" y="502.294" font-family="sans-serif" font-size="14" textLength="37.823">GATE</text><path d="M597.58 513.447h108.096" style="stroke:#181818;stroke-width:.5"/><text x="602.58" y="530.442" font-family="sans-serif" font-size="14" textLength="98.096">+stato: String</text><path d="M597.58 537.744h108.096" style="stroke:#181818;stroke-width:.5"/></g><g class="entity" data-entity="VENTOLA" data-source-line="57" data-uid="ent0011"><rect width="110.096" height="80.594" x="596.58" y="267.297" fill="#F1F1F1" rx="2.5" ry="2.5" style="stroke:#181818;stroke-width:.5"/><circle cx="617.093" cy="283.297" r="11" fill="#ADD1B2" style="stroke:#181818;stroke-width:1"/><path d="M620.062 288.938q-.578.296-1.219.437-.64.156-1.343.156-2.5 0-3.828-1.64-1.313-1.657-1.313-4.782t1.313-4.78q1.328-1.657 3.828-1.657.703 0 1.343.156.657.156 1.22.453V280q-.626-.578-1.22-.844-.593-.281-1.218-.281-1.344 0-2.032 1.078-.687 1.063-.687 3.156 0 2.094.687 3.172.688 1.063 2.032 1.063.625 0 1.218-.266.594-.281 1.22-.86v2.72Z"/><text x="632.319" y="288.144" font-family="sans-serif" font-size="14" textLength="65.844">VENTOLA</text><path d="M597.58 299.297h108.096" style="stroke:#181818;stroke-width:.5"/><text x="602.58" y="316.292" font-family="sans-serif" font-size="14" textLength="98.096">+stato: String</text><text x="602.58" y="332.589" font-family="sans-serif" font-size="14" textLength="95.505">+potenza: int</text><path d="M597.58 339.891h108.096" style="stroke:#181818;stroke-width:.5"/></g><g fill="none" class="link" data-entity-1="ModuloCAM" data-entity-2="ICamera" data-source-line="64" data-uid="lnk12"><path d="M276.13 86.187c81.68 1.4 181.783 3.113 263.413 4.503" style="stroke:#181818;stroke-width:1;stroke-dasharray:7,7"/><path d="m557.54 90.997-17.895-6.306-.204 11.999 18.099-5.693z" style="stroke:#181818;stroke-width:1"/></g><g fill="none" class="link" data-entity-1="ModelloML" data-entity-2="IPredizione" data-source-line="65" data-uid="lnk13"><path d="M342.21 200.587h131.26" style="stroke:#181818;stroke-width:1;stroke-dasharray:7,7"/><path d="m491.47 200.587-18-6v12l18-6z" style="stroke:#181818;stroke-width:1"/></g><g fill="none" class="link" data-entity-1="SensoreMovimento" data-entity-2="ISensoreMovimento" data-source-line="66" data-uid="lnk14"><path d="M357.05 621.617c38.96-.67 62.293-1.075 101.263-1.735" style="stroke:#181818;stroke-width:1;stroke-dasharray:7,7"/><path d="m476.31 619.577-18.099-5.694.203 11.998 17.896-6.304z" style="stroke:#181818;stroke-width:1"/></g><g class="link" data-entity-1="ControlloreTrappola" data-entity-2="ICamera" data-source-line="71" data-uid="lnk15"><path fill="none" d="M291.14 310.317c21.99-16.73 44.76-34.54 65.61-51.73 55.37-45.63 58-71.88 120-108 24.75-14.41 53.59-25.86 80.58-34.64" style="stroke:#181818;stroke-width:1"/><text x="394.25" y="166.654" font-family="sans-serif" font-size="13" textLength="45.786">utilizza</text><text x="298.759" y="317.566" font-family="sans-serif" font-size="13" textLength="8.271">1</text><text x="526.562" y="130.284" font-family="sans-serif" font-size="13" textLength="23.036">1..*</text></g><g class="link" data-entity-1="ControlloreTrappola" data-entity-2="IPredizione" data-source-line="72" data-uid="lnk16"><path fill="none" d="M290.85 361.437c61.49-17.61 131.09-40.69 155.9-60.85 20.41-16.58 9.18-34.94 30-51 8.07-6.22 16.9-11.65 26.15-16.4" style="stroke:#181818;stroke-width:1"/><text x="394.25" y="296.654" font-family="sans-serif" font-size="13" textLength="45.786">utilizza</text><text x="298.803" y="372.056" font-family="sans-serif" font-size="13" textLength="8.271">1</text><text x="460.375" y="250.148" font-family="sans-serif" font-size="13" textLength="23.036">1..*</text></g><g class="link" data-entity-1="ControlloreTrappola" data-entity-2="ISensoreMovimento" data-source-line="73" data-uid="lnk17"><path fill="none" d="M290.84 461.947c54.17 34.08 121.75 73.36 185.91 101.64 17.04 7.52 35.46 14.38 53.72 20.5" style="stroke:#181818;stroke-width:1"/><text x="387.75" y="517.654" font-family="sans-serif" font-size="13" textLength="58.83">monitora</text><text x="298.792" y="479.633" font-family="sans-serif" font-size="13" textLength="8.271">1</text><text x="481.357" y="573.29" font-family="sans-serif" font-size="13" textLength="23.036">1..*</text></g><g class="link" data-entity-1="ControlloreTrappola" data-entity-2="LED" data-source-line="77" data-uid="lnk18"><path fill="none" d="M303.01 406.829c30.83 3.81 52.6 5.858 83.74 7.758 85.28 5.21 186.35 2.83 234.95 1.16" style="stroke:#181818;stroke-width:1"/><path fill="#181818" d="m291.1 405.357 5.464 4.706 6.445-3.234-5.464-4.706-6.445 3.234z" style="stroke:#181818;stroke-width:1"/><text x="388.75" y="410.654" font-family="sans-serif" font-size="13" textLength="56.926">controlla</text><text x="298.716" y="418.991" font-family="sans-serif" font-size="13" textLength="8.271">1</text><text x="590.807" y="429.476" font-family="sans-serif" font-size="13" textLength="23.036">1..*</text></g><g class="link" data-entity-1="ControlloreTrappola" data-entity-2="GATE" data-source-line="78" data-uid="lnk19"><path fill="none" d="M302.67 421.352c95.52 25.32 219.24 58.115 293.66 77.845" style="stroke:#181818;stroke-width:1"/><path fill="#181818" d="m291.07 418.277 4.775 5.404 6.824-2.329-4.774-5.404-6.825 2.329z" style="stroke:#181818;stroke-width:1"/><text x="388.75" y="439.654" font-family="sans-serif" font-size="13" textLength="56.926">controlla</text><text x="298.684" y="432.779" font-family="sans-serif" font-size="13" textLength="8.271">1</text><text x="565.609" y="510.474" font-family="sans-serif" font-size="13" textLength="23.036">1..*</text></g><g class="link" data-entity-1="ControlloreTrappola" data-entity-2="VENTOLA" data-source-line="79" data-uid="lnk20"><path fill="none" d="M303.088 378.106c47.88-5.26 92.822-11.23 143.662-20.52 51.27-9.36 108.87-23.86 149.74-34.84" style="stroke:#181818;stroke-width:1"/><path fill="#181818" d="m291.16 379.417 6.401 3.321 5.527-4.631-6.401-3.321-5.527 4.631z" style="stroke:#181818;stroke-width:1"/><text x="388.75" y="353.654" font-family="sans-serif" font-size="13" textLength="56.926">controlla</text><text x="298.78" y="391.308" font-family="sans-serif" font-size="13" textLength="8.271">1</text><text x="565.371" y="337.583" font-family="sans-serif" font-size="13" textLength="23.036">1..*</text></g></svg>