<svg xmlns="http://www.w3.org/2000/svg" width="1038" height="253" data-diagram-type="DESCRIPTION" preserveAspectRatio="none" style="width:1038px;height:253px;background:#fff"><text x="318.03" y="22.995" class="title" data-source-line="2" font-family="sans-serif" font-size="14" font-weight="bold" textLength="387.94">Diagramma delle Componenti - Sistema Trappola</text><g class="cluster" data-entity="Applicazione Principale" data-source-line="8" data-uid="ent0002"><rect width="206" height="97.3" x="7" y="44.297" fill="none" rx="2.5" ry="2.5" style="stroke:#181818;stroke-width:1"/><text x="18.043" y="59.292" font-family="sans-serif" font-size="14" font-weight="bold" textLength="183.914">Applicazione Principale</text></g><g class="cluster" data-entity="Moduli e Driver" data-source-line="12" data-uid="ent0004"><rect width="795" height="97.3" x="237" y="44.297" fill="none" rx="2.5" ry="2.5" style="stroke:#181818;stroke-width:1"/><text x="573.886" y="59.292" font-family="sans-serif" font-size="14" font-weight="bold" textLength="121.228">Moduli e Driver</text></g><g class="entity" data-entity="SC" data-source-line="9" data-uid="ent0003"><rect width="174.429" height="46.297" x="22.79" y="79.297" fill="#F1F1F1" rx="2.5" ry="2.5" style="stroke:#181818;stroke-width:.5"/><path fill="#F1F1F1" d="M177.219 84.297h15v10h-15z" style="stroke:#181818;stroke-width:.5"/><path fill="#F1F1F1" d="M175.219 86.297h4v2h-4zM175.219 90.297h4v2h-4z" style="stroke:#181818;stroke-width:.5"/><text x="37.79" y="112.292" font-family="sans-serif" font-size="14" textLength="134.429">SistemaDiControllo</text></g><g class="entity" data-entity="GS" data-source-line="13" data-uid="ent0005"><rect width="147.058" height="46.297" x="655.47" y="79.297" fill="#F1F1F1" rx="2.5" ry="2.5" style="stroke:#181818;stroke-width:.5"/><path fill="#F1F1F1" d="M782.528 84.297h15v10h-15z" style="stroke:#181818;stroke-width:.5"/><path fill="#F1F1F1" d="M780.528 86.297h4v2h-4zM780.528 90.297h4v2h-4z" style="stroke:#181818;stroke-width:.5"/><text x="670.47" y="112.292" font-family="sans-serif" font-size="14" textLength="107.058">GestoreSensori</text></g><g class="entity" data-entity="Cam" data-source-line="14" data-uid="ent0006"><rect width="178.769" height="46.297" x="837.62" y="79.297" fill="#F1F1F1" rx="2.5" ry="2.5" style="stroke:#181818;stroke-width:.5"/><path fill="#F1F1F1" d="M996.389 84.297h15v10h-15z" style="stroke:#181818;stroke-width:.5"/><path fill="#F1F1F1" d="M994.389 86.297h4v2h-4zM994.389 90.297h4v2h-4z" style="stroke:#181818;stroke-width:.5"/><text x="852.62" y="112.292" font-family="sans-serif" font-size="14" textLength="138.769">ServizioFotocamera</text></g><g class="entity" data-entity="ML" data-source-line="15" data-uid="ent0007"><rect width="187.991" height="46.297" x="253" y="79.297" fill="#F1F1F1" rx="2.5" ry="2.5" style="stroke:#181818;stroke-width:.5"/><path fill="#F1F1F1" d="M420.991 84.297h15v10h-15z" style="stroke:#181818;stroke-width:.5"/><path fill="#F1F1F1" d="M418.991 86.297h4v2h-4zM418.991 90.297h4v2h-4z" style="stroke:#181818;stroke-width:.5"/><text x="268" y="112.292" font-family="sans-serif" font-size="14" textLength="147.991">ServizioPredizioneML</text></g><g class="entity" data-entity="DA" data-source-line="16" data-uid="ent0008"><rect width="144.788" height="46.297" x="475.61" y="79.297" fill="#F1F1F1" rx="2.5" ry="2.5" style="stroke:#181818;stroke-width:.5"/><path fill="#F1F1F1" d="M600.398 84.297h15v10h-15z" style="stroke:#181818;stroke-width:.5"/><path fill="#F1F1F1" d="M598.398 86.297h4v2h-4zM598.398 90.297h4v2h-4z" style="stroke:#181818;stroke-width:.5"/><text x="490.61" y="112.292" font-family="sans-serif" font-size="14" textLength="104.788">DriverAttuatori</text></g><g class="entity" data-entity="IRilevamento" data-source-line="19" data-uid="ent0009"><circle cx="655" cy="214.597" r="8" fill="#F1F1F1" style="stroke:#181818;stroke-width:.5"/><text x="608.854" y="244.592" font-family="sans-serif" font-size="14" textLength="92.292">IRilevamento</text></g><g class="entity" data-entity="ICamera" data-source-line="20" data-uid="ent0010"><circle cx="854" cy="214.597" r="8" fill="#F1F1F1" style="stroke:#181818;stroke-width:.5"/><text x="824.465" y="244.592" font-family="sans-serif" font-size="14" textLength="59.069">ICamera</text></g><g class="entity" data-entity="IPredizione" data-source-line="21" data-uid="ent0011"><circle cx="228" cy="214.597" r="8" fill="#F1F1F1" style="stroke:#181818;stroke-width:.5"/><text x="189.497" y="244.592" font-family="sans-serif" font-size="14" textLength="77.007">IPredizione</text></g><g class="entity" data-entity="IAttuatore" data-source-line="22" data-uid="ent0012"><circle cx="450" cy="214.597" r="8" fill="#F1F1F1" style="stroke:#181818;stroke-width:.5"/><text x="414.72" y="244.592" font-family="sans-serif" font-size="14" textLength="70.561">IAttuatore</text></g><g fill="none" class="link" data-entity-1="GS" data-entity-2="IRilevamento" data-source-line="25" data-uid="lnk13"><path d="M713.85 126.007c-16.66 24.8-32.49 48.36-43.53 64.79M660.28 205.737l15.019-11.594-9.96-6.693-5.059 18.287z" style="stroke:#181818;stroke-width:1"/></g><g fill="none" class="link" data-entity-1="Cam" data-entity-2="ICamera" data-source-line="26" data-uid="lnk14"><path d="M912.05 126.007c-16.43 24.8-32.005 48.296-42.895 64.726M859.21 205.737l14.946-11.689-10.003-6.629-4.943 18.318z" style="stroke:#181818;stroke-width:1"/></g><g fill="none" class="link" data-entity-1="ML" data-entity-2="IPredizione" data-source-line="27" data-uid="lnk15"><path d="M322.63 126.007c-26.79 24.8-55.18 51.073-72.93 67.503M236.49 205.737l17.285-7.824-8.151-8.807-9.134 16.631z" style="stroke:#181818;stroke-width:1"/></g><g fill="none" class="link" data-entity-1="DA" data-entity-2="IAttuatore" data-source-line="28" data-uid="lnk16"><path d="M527.93 126.007c-22.06 24.8-44.354 49.853-58.974 66.283" style="stroke:#181818;stroke-width:1"/><path d="m456.99 205.737 16.448-9.459-8.965-7.977-7.483 17.436z" style="stroke:#181818;stroke-width:1"/></g><g class="link" data-entity-1="SC" data-entity-2="IRilevamento" data-source-line="31" data-uid="lnk17"><path fill="none" d="M164.21 126.097c22.22 8.5 48.41 17.54 72.79 23.5 119.32 29.15 152.77 16.27 274 36 51.53 8.39 107.004 20.04 129.404 24.85" style="stroke:#181818;stroke-width:1;stroke-dasharray:7,7"/><path fill="#181818" d="m646.27 211.707-7.96-5.8 3.071 4.75-4.75 3.071 9.639-2.021z" style="stroke:#181818;stroke-width:1"/></g><g class="link" data-entity-1="SC" data-entity-2="ICamera" data-source-line="32" data-uid="lnk18"><path fill="none" d="M162.18 126.087c22.59 8.83 49.59 18.11 74.82 23.51 213.52 45.72 273.93 4.41 490 36 44.9 6.56 91.794 18.527 112.355 24.037" style="stroke:#181818;stroke-width:1;stroke-dasharray:7,7"/><path fill="#181818" d="m845.15 211.187-7.658-6.193 2.828 4.899-4.899 2.828 9.729-1.534z" style="stroke:#181818;stroke-width:1"/></g><g class="link" data-entity-1="SC" data-entity-2="IPredizione" data-source-line="33" data-uid="lnk19"><path fill="none" d="M134.16 126.007c26.57 24.8 63.434 59.206 81.034 75.636" style="stroke:#181818;stroke-width:1;stroke-dasharray:7,7"/><path fill="#181818" d="m219.58 205.737-3.849-9.066.194 5.654-5.653.194 9.308 3.218z" style="stroke:#181818;stroke-width:1"/></g><g class="link" data-entity-1="SC" data-entity-2="IAttuatore" data-source-line="34" data-uid="lnk20"><path fill="none" d="M169.84 125.977c21.13 7.75 45.12 16.31 67.16 23.62 78.43 26.01 168.802 51.642 198.232 59.882" style="stroke:#181818;stroke-width:1;stroke-dasharray:7,7"/><path fill="#181818" d="m441.01 211.097-7.588-6.279 2.773 4.931-4.93 2.773 9.745-1.425z" style="stroke:#181818;stroke-width:1"/></g></svg>