<svg xmlns="http://www.w3.org/2000/svg" width="1141" height="743" data-diagram-type="STATE" preserveAspectRatio="none" style="width:1141px;height:743px;background:#fff"><text x="419.381" y="22.995" class="title" data-source-line="1" font-family="sans-serif" font-size="14" font-weight="bold" textLength="289.119">Diagramma a Stati - Logica Trappola</text><rect width="178.115" height="134.078" x="403.64" y="124.297" fill="#F1F1F1" rx="12.5" ry="12.5" style="stroke:#181818;stroke-width:.5"/><path d="M403.64 150.594h178.115" style="stroke:#181818;stroke-width:.5"/><text x="463.676" y="142.292" font-family="sans-serif" font-size="14" textLength="58.044">InAttesa</text><text x="408.64" y="166.732" font-family="sans-serif" font-size="12" textLength="122.76">entry / camera1On()</text><text x="408.64" y="180.701" font-family="sans-serif" font-size="12" textLength="123.603">entry / camera2Off()</text><text x="408.64" y="194.67" font-family="sans-serif" font-size="12" textLength="141.357">entry / ventola1On(0.5)</text><text x="408.64" y="208.639" font-family="sans-serif" font-size="12" textLength="113.76">entry / sensoriOff()</text><text x="408.64" y="222.607" font-family="sans-serif" font-size="12" textLength="88.992">entry / ledOff()</text><text x="408.64" y="236.576" font-family="sans-serif" font-size="12" textLength="116.332">entry / gateChiusi()</text><text x="408.64" y="250.545" font-family="sans-serif" font-size="12" textLength="158.115">rilevamentoInsettoCam1()</text><rect width="178.115" height="78.203" x="409.64" y="335.377" fill="#F1F1F1" rx="12.5" ry="12.5" style="stroke:#181818;stroke-width:.5"/><path d="M409.64 361.674h178.115" style="stroke:#181818;stroke-width:.5"/><text x="452.275" y="353.372" font-family="sans-serif" font-size="14" textLength="92.846">PrimaCattura</text><text x="414.64" y="377.812" font-family="sans-serif" font-size="12" textLength="129.908">entry / ventola1On(1)</text><text x="414.64" y="391.781" font-family="sans-serif" font-size="12" textLength="88.148">entry / ledOn()</text><text x="414.64" y="405.75" font-family="sans-serif" font-size="12" textLength="158.115">rilevamentoInsettoCam1()</text><rect width="178.115" height="64.234" x="737.64" y="342.367" fill="#F1F1F1" rx="12.5" ry="12.5" style="stroke:#181818;stroke-width:.5"/><path d="M737.64 368.664h178.115" style="stroke:#181818;stroke-width:.5"/><text x="767.933" y="360.362" font-family="sans-serif" font-size="14" textLength="117.53">PrimaRepulsione</text><text x="742.64" y="384.802" font-family="sans-serif" font-size="12" textLength="134.238">entry / ventola1On(-1)</text><text x="742.64" y="398.771" font-family="sans-serif" font-size="12" textLength="158.115">rilevamentoInsettoCam1()</text><rect width="178.156" height="64.234" x="409.62" y="490.587" fill="#F1F1F1" rx="12.5" ry="12.5" style="stroke:#181818;stroke-width:.5"/><path d="M409.62 516.884h178.156" style="stroke:#181818;stroke-width:.5"/><text x="428.749" y="508.582" font-family="sans-serif" font-size="14" textLength="139.898">ConfermaProcedura</text><text x="414.62" y="533.022" font-family="sans-serif" font-size="12" textLength="142.043">entry / attivaCamera2()</text><text x="414.62" y="546.991" font-family="sans-serif" font-size="12" textLength="158.156">rilevamenteInsettoCam2()</text><rect width="220.607" height="106.141" x="103.39" y="631.817" fill="#F1F1F1" rx="12.5" ry="12.5" style="stroke:#181818;stroke-width:.5"/><path d="M103.39 658.114h220.607" style="stroke:#181818;stroke-width:.5"/><text x="151.839" y="649.812" font-family="sans-serif" font-size="14" textLength="123.71">ProceduraCattura</text><text x="108.39" y="674.252" font-family="sans-serif" font-size="12" textLength="127.647">entry / gate1Aperto()</text><text x="108.39" y="688.221" font-family="sans-serif" font-size="12" textLength="129.908">entry / ventola2On(1)</text><text x="108.39" y="702.19" font-family="sans-serif" font-size="12" textLength="200.607">rilevaAttraversamentoSensore1()</text><text x="108.39" y="716.159" font-family="sans-serif" font-size="12" textLength="118.769">exit / gate1Chiuso()</text><text x="108.39" y="730.127" font-family="sans-serif" font-size="12" textLength="113.912">exit / ventola2Off()</text><rect width="220.607" height="106.141" x="671.39" y="631.817" fill="#F1F1F1" rx="12.5" ry="12.5" style="stroke:#181818;stroke-width:.5"/><path d="M671.39 658.114h220.607" style="stroke:#181818;stroke-width:.5"/><text x="707.496" y="649.812" font-family="sans-serif" font-size="14" textLength="148.394">ProceduraRepulsione</text><text x="676.39" y="674.252" font-family="sans-serif" font-size="12" textLength="127.647">entry / gate2Aperto()</text><text x="676.39" y="688.221" font-family="sans-serif" font-size="12" textLength="129.908">entry / ventola2On(1)</text><text x="676.39" y="702.19" font-family="sans-serif" font-size="12" textLength="200.607">rilevaAttraversamentoSensore2()</text><text x="676.39" y="716.159" font-family="sans-serif" font-size="12" textLength="118.769">exit / gate2Chiuso()</text><text x="676.39" y="730.127" font-family="sans-serif" font-size="12" textLength="113.912">exit / ventola2Off()</text><circle cx="492.7" cy="53.297" r="10" fill="#222" style="stroke:#222;stroke-width:1"/><g class="link" data-entity-1=".start." data-entity-2="InAttesa" data-source-line="11" data-uid="lnk3"><path fill="none" d="M492.7 63.647v54.29" style="stroke:#181818;stroke-width:1"/><path fill="#181818" d="m492.7 123.937 4-9-4 4-4-4 4 9z" style="stroke:#181818;stroke-width:1"/></g><g class="link" data-entity-1="InAttesa" data-entity-2="PrimaCattura" data-source-line="26" data-uid="lnk4"><path fill="none" d="M461.77 258.857c-3.72 15.25-5 31.42-1.07 46.52 2.62 10.09 4.28 14.98 9.26 24.29" style="stroke:#181818;stroke-width:1"/><path fill="#181818" d="m472.79 334.957-.718-9.823-1.64 5.414-5.414-1.64 7.772 6.049z" style="stroke:#181818;stroke-width:1"/><text x="461.7" y="301.444" font-family="sans-serif" font-size="13" textLength="177.157">rilevata zanzara (da Cam1)</text></g><g class="link" data-entity-1="InAttesa" data-entity-2="PrimaRepulsione" data-source-line="27" data-uid="lnk5"><path fill="none" d="M582.1 239.707c28.96 15.43 61.18 32.7 90.6 48.67 32.34 17.57 63.114 34.538 92.174 50.668" style="stroke:#181818;stroke-width:1"/><path fill="#181818" d="m770.12 341.957-5.928-7.865 1.556 5.438-5.438 1.556 9.81.871z" style="stroke:#181818;stroke-width:1"/><text x="703.7" y="301.444" font-family="sans-serif" font-size="13" textLength="210.958">rilevato NON zanzara (da Cam1)</text></g><g class="link" data-entity-1="PrimaCattura" data-entity-2="ConfermaProcedura" data-source-line="41" data-uid="lnk6"><path fill="none" d="M495.59 414.027c-.84 14.58-1.39 31.33-.89 46.56.31 9.67.509 14.193 1.149 23.743" style="stroke:#181818;stroke-width:1"/><path fill="#181818" d="m496.25 490.317 3.389-9.247-3.723 4.258-4.259-3.723 4.593 8.712z" style="stroke:#181818;stroke-width:1"/><text x="495.7" y="456.654" font-family="sans-serif" font-size="13" textLength="115.597">InsettoFuoriCam1</text></g><g class="link" data-entity-1="PrimaRepulsione" data-entity-2="ConfermaProcedura" data-source-line="42" data-uid="lnk7"><path fill="none" d="M760.86 407.057c-34.45 16.32-77.41 36.36-116.16 53.53-22.24 9.84-41.014 17.877-63.304 27.187" style="stroke:#181818;stroke-width:1"/><path fill="#181818" d="m575.86 490.087 9.846.222-5.232-2.149 2.149-5.233-6.763 7.16z" style="stroke:#181818;stroke-width:1"/><text x="681.7" y="456.654" font-family="sans-serif" font-size="13" textLength="115.597">InsettoFuoriCam1</text></g><g class="link" data-entity-1="ConfermaProcedura" data-entity-2="ProceduraRepulsione" data-source-line="51" data-uid="lnk8"><path fill="none" d="M554.27 555.157c38.31 21.68 84.928 48.075 129.438 73.265" style="stroke:#181818;stroke-width:1"/><path fill="#181818" d="m688.93 631.377-5.862-7.914 1.511 5.451-5.452 1.511 9.803.952z" style="stroke:#181818;stroke-width:1"/><text x="633.7" y="597.884" font-family="sans-serif" font-size="13" textLength="104.552">rilevata zanzara</text></g><g class="link" data-entity-1="ConfermaProcedura" data-entity-2="ProceduraCattura" data-source-line="52" data-uid="lnk9"><path fill="none" d="M442.73 555.157c-38.58 21.68-85.55 48.09-130.38 73.28" style="stroke:#181818;stroke-width:1"/><path fill="#181818" d="m307.12 631.377 9.806-.922-5.447-1.527 1.528-5.447-5.887 7.896z" style="stroke:#181818;stroke-width:1"/><text x="383.7" y="597.884" font-family="sans-serif" font-size="13" textLength="131.542">rilevata NON zanara</text></g><g class="link" data-entity-1="InAttesa" data-entity-2="ConfermaProcedura" data-source-line="55" data-uid="lnk11"><path fill="none" d="M397.72 217.154c-113.3 33.83-280.69 101.553-213.02 196.433 50.64 70.99 151.05 95.83 224.74 104.28" style="stroke:#181818;stroke-width:1"/><path fill="#181818" d="m403.47 215.437-9.768-1.258 4.977 2.688-2.688 4.978 7.479-6.408z" style="stroke:#181818;stroke-width:1"/><text x="185.7" y="379.044" font-family="sans-serif" font-size="13" textLength="148.573">nessun insetto rilevato</text></g><g class="link" data-entity-1="InAttesa" data-entity-2="ProceduraCattura" data-source-line="76" data-uid="lnk13"><path fill="none" d="M397.508 206.55c-67.68 13.01-154.928 36.657-225.808 81.827-77.84 49.61-105.19 68.93-138 155.21-27.7 72.83 38.34 142.55 98.08 187.95" style="stroke:#181818;stroke-width:1"/><path fill="#181818" d="m403.4 205.417-9.593-2.229 4.683 3.173-3.173 4.683 8.083-5.627z" style="stroke:#181818;stroke-width:1"/><text x="34.7" y="456.654" font-family="sans-serif" font-size="13" textLength="142.181">proceduraCompletata</text></g><g class="link" data-entity-1="InAttesa" data-entity-2="ProceduraRepulsione" data-source-line="77" data-uid="lnk15"><path fill="none" d="M587.83 194.167c97.38 5.36 248.8 24.89 363.87 94.21 23.25 14.01 29.78 21.47 39 47 40.89 113.32-65.75 230.51-141.3 296" style="stroke:#181818;stroke-width:1"/><path fill="#181818" d="m581.84 193.837 8.767 4.489-3.775-4.214 4.214-3.774-9.206 3.499z" style="stroke:#181818;stroke-width:1"/><text x="991.7" y="456.654" font-family="sans-serif" font-size="13" textLength="142.181">proceduraCompletata</text></g></svg>